<svg width="345" height="236" viewBox="0 0 345 236" fill="none" xmlns="http://www.w3.org/2000/svg">
<path d="M60.2903 35C60.2903 36.6721 60.4296 42.8284 60.9891 53.4288C61.2696 58.7435 62.1059 63.8899 65.182 75.4636C68.258 87.0373 73.6923 104.873 77.7459 116.43C81.7994 127.987 84.3075 132.724 86.993 137.255C89.6785 141.785 92.4653 145.966 96.8967 151.045C101.328 156.125 107.32 161.977 112.218 166.107C117.116 170.236 120.739 172.466 124.834 174.659C128.93 176.853 133.389 178.943 142.096 181.692C150.802 184.441 163.622 187.785 175.73 189.786C187.837 191.788 198.845 192.345 206.676 192.284C214.506 192.222 218.826 191.526 230.178 187.823C241.53 184.12 259.784 177.431 271.556 172.732C283.328 168.032 288.065 165.524 292.108 163.605C299.356 160.432 303.216 159 304.339 158.65C304.905 158.439 305.462 158.16 306.036 157.873" stroke="black" stroke-width="10" stroke-linecap="round"/>
<path d="M254.945 133.805C263.863 135.616 272.78 137.428 282.53 138.709C292.28 139.991 302.591 140.687 308.251 141.116C313.911 141.544 314.608 141.684 314.34 142.731C314.072 143.778 312.817 145.729 310.43 151.123C308.042 156.517 304.558 165.296 302.694 170.933C300.83 176.57 300.691 178.799 300.969 181.096" stroke="black" stroke-width="10" stroke-linecap="round"/>
<path d="M32 115.226C32 117.607 32.836 122.936 34.3836 130.598C36.1214 139.202 39.4484 146.59 41.9037 151.013C44.4073 155.523 49.1431 160.237 55.7343 165.923C63.5632 172.676 72.641 175.877 78.8944 177.705C83.5244 179.059 89.8052 179.124 97.1142 179.196C102.205 179.246 106.294 177.308 113.293 172.482C118.29 169.036 125.865 163.058 132.6 158.232C139.334 153.405 144.908 149.782 150.287 145.756C155.667 141.73 160.683 137.411 166.96 131.284C173.236 125.157 180.621 117.354 186.516 111.732C196.209 102.487 202.709 98.4883 206.499 96.3813C210.567 94.5529 215.507 93.1342 230.877 91.5233C243.46 90.4698 265.754 88.9371 288.724 87.3579" stroke="black" stroke-width="10" stroke-linecap="round"/>
</svg>
